<svg id="圖層_1" data-name="圖層 1" xmlns="http://www.w3.org/2000/svg" viewBox="0 0 33.89 58.11"><defs><style>.cls-1{fill:none;stroke:#040000;stroke-width:1.5px;}.cls-2{fill:#040000;}</style></defs><line class="cls-1" x1="17" y1="35.06" x2="17" y2="1.06"/><path class="cls-1" d="M0,18.06l17-17,17,17"/><path class="cls-2" d="M.84,40.06v1.6H5.38v12.4H7.12V41.66h4.54v-1.6Zm12.7,13.46a5.17,5.17,0,0,0,2.64.66,5.15,5.15,0,0,0,2.62-.66,4.69,4.69,0,0,0,1.8-1.84A5.63,5.63,0,0,0,21.24,49a5.75,5.75,0,0,0-.64-2.72,4.82,4.82,0,0,0-1.8-1.84,5.15,5.15,0,0,0-2.62-.66,5.17,5.17,0,0,0-2.64.66,4.63,4.63,0,0,0-1.78,1.84A5.52,5.52,0,0,0,11.12,49a5.42,5.42,0,0,0,.64,2.72A4.51,4.51,0,0,0,13.54,53.52Zm4.4-1.28a3.5,3.5,0,0,1-3.54,0,3.08,3.08,0,0,1-1.18-1.34A4.32,4.32,0,0,1,12.8,49,4.38,4.38,0,0,1,13.22,47a3.2,3.2,0,0,1,1.18-1.34,3.5,3.5,0,0,1,3.54,0A3.25,3.25,0,0,1,19.14,47,4.38,4.38,0,0,1,19.56,49a4.32,4.32,0,0,1-.42,1.94A3.13,3.13,0,0,1,17.94,52.24Zm12.84-7.88a5.22,5.22,0,0,0-2.52-.62,4.11,4.11,0,0,0-3.5,1.76l-.22-1.64H23.12v14.2h1.64V52.5a3.33,3.33,0,0,0,1.38,1.24,4.55,4.55,0,0,0,2.12.44,4.94,4.94,0,0,0,2.52-.66,4.54,4.54,0,0,0,1.74-1.84A5.63,5.63,0,0,0,33.16,49a5.9,5.9,0,0,0-.64-2.8A4.44,4.44,0,0,0,30.78,44.36Zm-.24,7.32a3.1,3.1,0,0,1-2.44,1,3.27,3.27,0,0,1-1.76-.48,3.08,3.08,0,0,1-1.18-1.34,4.5,4.5,0,0,1-.42-2A4.24,4.24,0,0,1,25.16,47a3.15,3.15,0,0,1,1.18-1.32,3.27,3.27,0,0,1,1.76-.48,3.12,3.12,0,0,1,2.44,1.06,4.38,4.38,0,0,1,0,5.42Z"/></svg>