<svg id="圖層_1" data-name="圖層 1" xmlns="http://www.w3.org/2000/svg" viewBox="0 0 34 34"><defs><style>.cls-1{fill:none;}.cls-1,.cls-2{stroke:#231815;}.cls-2{fill:#231815;}</style></defs><circle class="cls-1" cx="17" cy="17" r="16.5"/><path class="cls-2" d="M12.64,10h0a5.51,5.51,0,0,1,2-1.11,8.67,8.67,0,0,1,2.75-.38,8.28,8.28,0,0,1,2.18.28,6.24,6.24,0,0,1,1.83.84,2.83,2.83,0,0,1,1.09,1.27l0,0,0,0A3.54,3.54,0,0,1,23,12.73,3.88,3.88,0,0,1,22.38,15a9,9,0,0,1-1.27,1.42q-.25.24-.51.51l-1.5,1.29h0c-.16.14-.35.31-.51.47a2,2,0,0,0-.4.55,2.32,2.32,0,0,0-.41,1.29,4.29,4.29,0,0,0-.12,1.08H16.8a5.1,5.1,0,0,1,.1-1.11,7.65,7.65,0,0,1,.54-1.38A4.44,4.44,0,0,1,18.36,18l.43-.35A13.32,13.32,0,0,0,20,16.61,9.25,9.25,0,0,0,21.47,15a3.9,3.9,0,0,0,.67-2.09,3.38,3.38,0,0,0-.42-1.66,4.92,4.92,0,0,0-1-1.23,4.61,4.61,0,0,0-1.56-.8,5,5,0,0,0-1.79-.33,5.07,5.07,0,0,0-2.29.44,4.25,4.25,0,0,0-1.69,1.14,5.72,5.72,0,0,0-1,1.65l-.14.34a3.42,3.42,0,0,0-.32.95H11a4.71,4.71,0,0,1,.41-1.71A3.66,3.66,0,0,1,12.64,10Zm5,14.48v1H16.33v-1Z"/></svg>