<svg id="圖層_1" data-name="圖層 1" xmlns="http://www.w3.org/2000/svg" viewBox="0 0 75.88 75.88"><defs><style>.cls-1{fill:#231815;stroke:#231815;stroke-miterlimit:10;}.cls-2{fill:#fff;}</style></defs><circle class="cls-1" cx="37.94" cy="37.94" r="37.44"/><path class="cls-2" d="M17.19,35.41v-1h1.23V32.48h1.11V34.4h1.73v1H19.53v4.05a.84.84,0,0,0,.17.61.72.72,0,0,0,.58.19h1.2v1H20.21a1.9,1.9,0,0,1-1.38-.43,1.94,1.94,0,0,1-.41-1.36V35.41Z"/><path class="cls-2" d="M23.4,34.76a3.31,3.31,0,0,1,1.7-.44,3.49,3.49,0,0,1,1.67.39,2.88,2.88,0,0,1,1.14,1.13,3.71,3.71,0,0,1,.45,1.74c0,.1,0,.25,0,.47H23v.09a2.35,2.35,0,0,0,.62,1.62,2.07,2.07,0,0,0,1.55.6A2.11,2.11,0,0,0,26.43,40a1.8,1.8,0,0,0,.69-1h1.12a2.87,2.87,0,0,1-1,1.72,3,3,0,0,1-2,.67,3.57,3.57,0,0,1-1.79-.44,3,3,0,0,1-1.19-1.24,3.79,3.79,0,0,1-.43-1.84A4,4,0,0,1,22.25,36,3,3,0,0,1,23.4,34.76Zm3.16,1a2.17,2.17,0,0,0-1.45-.48,2,2,0,0,0-1.37.51,2,2,0,0,0-.67,1.33h4.14A1.94,1.94,0,0,0,26.56,35.77Z"/><path class="cls-2" d="M36,41.27h-.6A1.32,1.32,0,0,1,34.5,41a1.1,1.1,0,0,1-.3-.8,2.62,2.62,0,0,1-2.3,1.15,2.92,2.92,0,0,1-1.84-.54,1.77,1.77,0,0,1-.69-1.47,1.9,1.9,0,0,1,.7-1.59,3.37,3.37,0,0,1,2.06-.55h2v-.47a1.27,1.27,0,0,0-.46-1,1.89,1.89,0,0,0-1.25-.38,2.05,2.05,0,0,0-1.18.32,1.29,1.29,0,0,0-.57.84H29.58a2.16,2.16,0,0,1,.9-1.57,3.3,3.3,0,0,1,2-.57,3,3,0,0,1,2,.64,2.34,2.34,0,0,1,.72,1.84v3c0,.33.15.5.46.5H36Zm-4-3.14c-1,0-1.54.38-1.54,1.14a1,1,0,0,0,.41.83,1.78,1.78,0,0,0,1.09.3,2.25,2.25,0,0,0,1.59-.53,1.82,1.82,0,0,0,.58-1.4v-.34Z"/><path class="cls-2" d="M43.22,36a3.87,3.87,0,0,1,.43,1.88,3.72,3.72,0,0,1-.43,1.83,3,3,0,0,1-1.17,1.24,3.27,3.27,0,0,1-1.7.45A3,3,0,0,1,38.92,41a2.29,2.29,0,0,1-.92-.82l-.15,1.05h-1V31.85H38v3.66a2.75,2.75,0,0,1,2.35-1.19,3.37,3.37,0,0,1,1.7.42A2.91,2.91,0,0,1,43.22,36Zm-.7,1.88A2.63,2.63,0,0,0,41.89,36a2.08,2.08,0,0,0-1.65-.71,2.18,2.18,0,0,0-1.17.32,2,2,0,0,0-.8.89,2.86,2.86,0,0,0-.29,1.3,3,3,0,0,0,.29,1.32,2,2,0,0,0,.8.91,2.1,2.1,0,0,0,1.17.32,2.08,2.08,0,0,0,1.65-.7A2.64,2.64,0,0,0,42.52,37.83Z"/><path class="cls-2" d="M51.33,41.27h-.6a1.34,1.34,0,0,1-.94-.27,1.1,1.1,0,0,1-.3-.8,2.62,2.62,0,0,1-2.3,1.15,2.92,2.92,0,0,1-1.84-.54,1.77,1.77,0,0,1-.69-1.47,1.88,1.88,0,0,1,.71-1.59,3.32,3.32,0,0,1,2.05-.55h2v-.47a1.29,1.29,0,0,0-.45-1,1.91,1.91,0,0,0-1.26-.38,2.05,2.05,0,0,0-1.18.32,1.29,1.29,0,0,0-.57.84H44.87a2.19,2.19,0,0,1,.9-1.57,3.32,3.32,0,0,1,2-.57,3,3,0,0,1,2,.64,2.34,2.34,0,0,1,.72,1.84v3c0,.33.15.5.46.5h.33Zm-4-3.14q-1.53,0-1.53,1.14a1,1,0,0,0,.4.83,1.78,1.78,0,0,0,1.09.3,2.25,2.25,0,0,0,1.59-.53,1.82,1.82,0,0,0,.58-1.4v-.34Z"/><path class="cls-2" d="M58.7,40.93q0,3.1-3.41,3.11a3.57,3.57,0,0,1-2.17-.61,2.37,2.37,0,0,1-1-1.72h1.13a1.52,1.52,0,0,0,.69,1,2.63,2.63,0,0,0,1.41.35,1.94,1.94,0,0,0,2.22-2.17v-.81a2.51,2.51,0,0,1-2.35,1.27,3.37,3.37,0,0,1-1.7-.42,2.91,2.91,0,0,1-1.17-1.21,3.88,3.88,0,0,1-.43-1.89A3.75,3.75,0,0,1,52.37,36a3,3,0,0,1,1.17-1.23,3.25,3.25,0,0,1,1.7-.45,2.93,2.93,0,0,1,1.43.33,2.31,2.31,0,0,1,.92.94l.15-1.19h1Zm-1.38-1.77a2.86,2.86,0,0,0,.29-1.3,3,3,0,0,0-.29-1.32,2,2,0,0,0-.8-.91,2.11,2.11,0,0,0-1.17-.33A2.08,2.08,0,0,0,53.7,36a3,3,0,0,0,0,3.65,2.08,2.08,0,0,0,1.65.7,2.18,2.18,0,0,0,1.17-.31A2,2,0,0,0,57.32,39.16Z"/></svg>