<svg id="圖層_1" data-name="圖層 1" xmlns="http://www.w3.org/2000/svg" viewBox="0 0 75.88 75.88"><defs><style>.cls-1{fill:#231815;stroke:#231815;stroke-miterlimit:10;}.cls-2{fill:#fff;}</style></defs><circle class="cls-1" cx="37.94" cy="37.94" r="37.44"/><path class="cls-2" d="M20.4,25.11h1.17v8.35h4.3v1.08H20.4Z"/><path class="cls-2" d="M26.78,32.93a4.11,4.11,0,0,1,0-3.66A3.14,3.14,0,0,1,28,28a3.52,3.52,0,0,1,1.77-.44,3.57,3.57,0,0,1,1.77.44,3.11,3.11,0,0,1,1.2,1.24,4.11,4.11,0,0,1,0,3.66,3.05,3.05,0,0,1-1.2,1.24,3.48,3.48,0,0,1-1.77.45A3.43,3.43,0,0,1,28,34.17,3.07,3.07,0,0,1,26.78,32.93Zm5-.52A2.93,2.93,0,0,0,32,31.1a2.89,2.89,0,0,0-.28-1.3,2.13,2.13,0,0,0-.8-.9,2.17,2.17,0,0,0-1.19-.33,2.15,2.15,0,0,0-1.19.33,2,2,0,0,0-.8.9,2.89,2.89,0,0,0-.29,1.3,2.93,2.93,0,0,0,.29,1.31,2.06,2.06,0,0,0,.8.9,2.14,2.14,0,0,0,1.19.32A2.17,2.17,0,0,0,31,33.31,2.19,2.19,0,0,0,31.75,32.41Z"/><path class="cls-2" d="M34.62,32.93a4.11,4.11,0,0,1,0-3.66A3.11,3.11,0,0,1,35.82,28a3.57,3.57,0,0,1,1.77-.44,3.52,3.52,0,0,1,1.77.44,3.14,3.14,0,0,1,1.21,1.24,4.11,4.11,0,0,1,0,3.66,3.07,3.07,0,0,1-1.21,1.24,3.43,3.43,0,0,1-1.77.45,3.48,3.48,0,0,1-1.77-.45A3.05,3.05,0,0,1,34.62,32.93Zm5-.52a2.93,2.93,0,0,0,.29-1.31,2.89,2.89,0,0,0-.29-1.3,2,2,0,0,0-.8-.9,2.15,2.15,0,0,0-1.19-.33,2.17,2.17,0,0,0-1.19.33,2.13,2.13,0,0,0-.8.9,2.89,2.89,0,0,0-.28,1.3,2.93,2.93,0,0,0,.28,1.31,2.19,2.19,0,0,0,.8.9,2.17,2.17,0,0,0,1.19.32,2.14,2.14,0,0,0,1.19-.32A2.06,2.06,0,0,0,39.58,32.41Z"/><path class="cls-2" d="M43.64,33.28a2.17,2.17,0,0,0,1.34.39,2.09,2.09,0,0,0,1.18-.29.86.86,0,0,0,.45-.76.8.8,0,0,0-.22-.61,1,1,0,0,0-.55-.3c-.23-.05-.56-.11-1-.16a7.84,7.84,0,0,1-1.45-.29,2,2,0,0,1-.92-.55,1.54,1.54,0,0,1-.35-1.06,1.81,1.81,0,0,1,.35-1.08,2.2,2.2,0,0,1,.93-.73,3.19,3.19,0,0,1,1.33-.26,3.24,3.24,0,0,1,2,.56,2.14,2.14,0,0,1,.85,1.62H46.46a1.28,1.28,0,0,0-.52-.89,1.87,1.87,0,0,0-1.15-.35,2,2,0,0,0-1.13.29.9.9,0,0,0-.43.76.73.73,0,0,0,.2.54,1.1,1.1,0,0,0,.52.25,9,9,0,0,0,1,.15,7.47,7.47,0,0,1,1.49.3,2,2,0,0,1,.94.6,1.68,1.68,0,0,1,.36,1.13,1.72,1.72,0,0,1-.36,1.09,2.26,2.26,0,0,1-1,.73,3.56,3.56,0,0,1-1.37.26A3.48,3.48,0,0,1,42.82,34,2.11,2.11,0,0,1,42,32.27H43.1A1.29,1.29,0,0,0,43.64,33.28Z"/><path class="cls-2" d="M50.27,28a3.31,3.31,0,0,1,1.7-.44,3.49,3.49,0,0,1,1.67.39,2.88,2.88,0,0,1,1.14,1.13,3.59,3.59,0,0,1,.44,1.74c0,.1,0,.25,0,.47H49.87v.09A2.3,2.3,0,0,0,50.49,33a2.3,2.3,0,0,0,2.8.23,1.76,1.76,0,0,0,.7-1H55.1a2.82,2.82,0,0,1-1,1.72,3,3,0,0,1-2,.67,3.54,3.54,0,0,1-1.79-.44,3,3,0,0,1-1.19-1.24,3.79,3.79,0,0,1-.43-1.84,4,4,0,0,1,.41-1.84A3,3,0,0,1,50.27,28Zm3.16,1A2.19,2.19,0,0,0,52,28.56a2,2,0,0,0-1.37.51,1.91,1.91,0,0,0-.67,1.33h4.14A1.94,1.94,0,0,0,53.43,29Z"/><path class="cls-2" d="M16.1,41.27v9.42H15V41.27Z"/><path class="cls-2" d="M18.93,44.18a3.27,3.27,0,0,1,1.69-.44,3.46,3.46,0,0,1,1.67.39,2.84,2.84,0,0,1,1.15,1.13A3.74,3.74,0,0,1,23.88,47c0,.1,0,.26,0,.47H18.53v.1a2.27,2.27,0,0,0,.61,1.61,2.09,2.09,0,0,0,1.55.61A2.16,2.16,0,0,0,22,49.42a1.74,1.74,0,0,0,.69-1h1.12a2.8,2.8,0,0,1-1,1.71,3,3,0,0,1-2,.67A3.57,3.57,0,0,1,19,50.33a3,3,0,0,1-1.19-1.24,3.86,3.86,0,0,1-.42-1.83,3.91,3.91,0,0,1,.41-1.85A3,3,0,0,1,18.93,44.18Zm3.15,1a2.11,2.11,0,0,0-1.44-.49,2,2,0,0,0-1.37.51,2,2,0,0,0-.68,1.34h4.15A1.91,1.91,0,0,0,22.08,45.2Z"/><path class="cls-2" d="M31.57,50.69H31a1.34,1.34,0,0,1-.94-.27,1.09,1.09,0,0,1-.3-.79,2.62,2.62,0,0,1-2.3,1.14,2.89,2.89,0,0,1-1.83-.54,1.75,1.75,0,0,1-.7-1.47,1.88,1.88,0,0,1,.71-1.58,3.25,3.25,0,0,1,2-.56h2v-.47a1.29,1.29,0,0,0-.45-1A1.91,1.91,0,0,0,28,44.73a2.07,2.07,0,0,0-1.18.31,1.29,1.29,0,0,0-.57.84h-1.1A2.2,2.2,0,0,1,26,44.31a3.32,3.32,0,0,1,2-.57,3,3,0,0,1,2,.64,2.34,2.34,0,0,1,.72,1.84v3c0,.33.16.5.46.5h.34Zm-4-3.14c-1,0-1.53.38-1.53,1.15a1,1,0,0,0,.4.82,1.81,1.81,0,0,0,1.09.31,2.26,2.26,0,0,0,1.59-.53,1.83,1.83,0,0,0,.58-1.41v-.34Z"/><path class="cls-2" d="M32.87,43.06a1.93,1.93,0,0,1,.43-1.36,1.83,1.83,0,0,1,1.36-.43h1.27v1h-1.2A.63.63,0,0,0,34,43v.79h1.94v1H34v5.86H32.87V44.83H31.64v-1h1.23Z"/><path class="cls-2" d="M47.05,41.27v1.07H44v8.35H42.82V42.34h-3V41.27Z"/><path class="cls-2" d="M48.25,44.18a3.25,3.25,0,0,1,1.69-.44,3.46,3.46,0,0,1,1.67.39,2.82,2.82,0,0,1,1.14,1.13A3.74,3.74,0,0,1,53.2,47c0,.1,0,.26,0,.47H47.84v.1a2.32,2.32,0,0,0,.62,1.61,2.09,2.09,0,0,0,1.55.61,2.18,2.18,0,0,0,1.26-.37,1.83,1.83,0,0,0,.69-1h1.12a2.85,2.85,0,0,1-1,1.71,3,3,0,0,1-2,.67,3.57,3.57,0,0,1-1.79-.44,3,3,0,0,1-1.19-1.24,3.86,3.86,0,0,1-.43-1.83,3.91,3.91,0,0,1,.42-1.85A2.91,2.91,0,0,1,48.25,44.18Zm3.15,1A2.12,2.12,0,0,0,50,44.71a2,2,0,0,0-1.37.51,2,2,0,0,0-.67,1.34h4.14A1.9,1.9,0,0,0,51.4,45.2Z"/><path class="cls-2" d="M60.88,50.69h-.6a1.34,1.34,0,0,1-.94-.27,1.09,1.09,0,0,1-.3-.79,2.63,2.63,0,0,1-2.3,1.14,2.92,2.92,0,0,1-1.84-.54,1.77,1.77,0,0,1-.69-1.47,1.85,1.85,0,0,1,.71-1.58,3.25,3.25,0,0,1,2-.56h2v-.47a1.29,1.29,0,0,0-.45-1,1.91,1.91,0,0,0-1.26-.37A2.05,2.05,0,0,0,56.1,45a1.29,1.29,0,0,0-.57.84H54.42a2.21,2.21,0,0,1,.9-1.57,3.32,3.32,0,0,1,2-.57,3,3,0,0,1,2,.64,2.34,2.34,0,0,1,.72,1.84v3c0,.33.15.5.46.5h.33Zm-4-3.14c-1,0-1.53.38-1.53,1.15a1,1,0,0,0,.4.82,1.79,1.79,0,0,0,1.09.31,2.3,2.3,0,0,0,1.59-.53A1.86,1.86,0,0,0,59,47.89v-.34Z"/></svg>